<svg width="210" height="50" viewBox="0 0 210 50" fill="none" xmlns="http://www.w3.org/2000/svg">
<g clip-path="url(#clip0_436_2)">
<path d="M209.26 47.2826H0V50H209.26V47.2826Z" fill="black"/>
<path d="M12.9169 38.8889C13.2735 38.9294 13.0061 40.2665 12.6495 40.2665H0.435847C0.079245 40.2665 -0.188207 38.9294 0.168396 38.8889C2.44174 38.6053 3.86815 37.7949 3.86815 35.2422V16.9276C3.86815 14.3749 2.44174 13.5646 0.168396 13.2809C-0.188207 13.2404 0.079245 11.9033 0.435847 11.9033H12.6495C13.0061 11.9033 13.2735 13.2404 12.9169 13.2809C11.0002 13.524 9.21718 14.0913 9.21718 16.9276V35.2422C9.21718 38.0785 11.0002 38.6458 12.9169 38.8889ZM31.8614 39.2536C32.218 39.2536 32.1289 40.3476 31.8614 40.4286C29.0532 41.2795 25.086 40.9959 22.3669 38.3216L9.75209 25.9228L19.8261 16.5224C21.9657 14.537 21.832 13.6456 19.4695 13.2809C18.9346 13.1999 19.1575 11.9033 19.5141 11.9033H29.7664C30.123 11.9033 30.3905 13.2404 29.9447 13.2809C27.9834 13.524 25.6655 14.3344 22.8572 16.9681L14.9674 24.3426L26.4678 35.5663C29.3652 38.3622 30.9254 39.2536 31.8614 39.2536ZM40.0299 40.9148C36.9542 40.9148 33.923 39.2536 33.923 35.9715C33.923 33.7835 35.3495 32.6085 38.5589 31.6765L45.0669 29.7721C46.4041 29.3669 46.8053 29.3264 46.8053 28.3135V26.6927C46.8053 24.1805 45.4235 23.8969 43.685 23.8969C41.3226 23.8969 38.5143 24.4642 36.865 24.6262C36.4638 24.6667 36.1964 24.4642 36.1518 24.1805L36.0627 23.4512C35.9289 22.3977 42.7044 20.6959 46.0921 20.6959C51.2628 20.6959 51.6194 24.4236 51.6194 27.3005V35.85C51.6194 39.2536 54.8289 37.8759 55.4529 38.2406C55.6758 38.3622 55.765 38.6458 55.765 38.8079C55.765 39.6588 51.976 40.9148 50.1039 40.9148C48.6775 40.9148 47.786 40.1855 46.7162 38.119C42.4815 40.4691 41.5454 40.9148 40.0299 40.9148ZM42.1695 37.9164C44.4428 37.9164 46.8499 36.4578 46.8499 34.3913V31.2308C46.5824 31.3929 46.627 31.4334 45.7801 31.6765L41.278 33.0542C39.8516 33.4999 39.1384 34.1887 39.1384 35.4043C39.1384 36.944 40.2973 37.9164 42.1695 37.9164ZM56.0881 40.2665C55.7315 40.2665 55.4195 39.0915 55.7761 39.051C57.1134 38.8889 58.8518 38.3216 58.8518 35.9715V26.247C58.8518 24.3021 57.6928 23.8564 55.8207 23.6538C55.4641 23.6133 55.6424 22.5598 55.999 22.4787L63.0419 20.6959C63.5768 20.5743 63.7996 20.8985 63.7996 21.3037C63.7996 22.4382 64.1563 22.8434 64.8695 22.6003C67.0536 21.8709 69.1487 20.6959 71.8232 20.6959C76.1916 20.6959 77.7071 23.7348 77.7071 26.3685V35.9715C77.7071 38.3216 79.4456 38.8889 80.7828 39.051C81.1394 39.0915 80.8274 40.2665 80.5154 40.2665H70.5751C70.2631 40.2665 70.0402 39.0915 70.3076 39.051C72.0015 38.8079 72.9376 38.119 72.9376 35.9715V28.1919C72.9376 24.7883 71.11 24.0184 68.2572 24.0184C66.3404 24.0184 63.6213 24.5047 63.6213 25.5582V35.9715C63.6213 38.119 64.8249 38.8484 66.4742 39.051C66.7862 39.0915 66.5187 40.2665 66.1621 40.2665H56.0881ZM106.648 38.2406C106.871 38.3622 106.96 38.6458 106.96 38.8079C106.96 39.6588 103.082 40.9148 101.209 40.9148C99.7831 40.9148 99.2927 38.3622 97.9555 38.8889C96.0387 39.6588 92.8739 40.9148 91.3583 40.9148C86.455 40.9148 82.1312 37.4707 82.1312 31.555C82.1312 26.0849 85.8756 20.6959 93.0522 20.6959C96.9748 20.6959 98.0446 22.6408 98.0446 20.0071V16.5224C98.0446 13.6051 97.7772 13.0378 93.3642 12.5516C93.0522 12.5111 93.1414 11.4576 93.4534 11.417L102.992 9.79629C103.394 9.71525 103.75 9.99888 103.617 10.5256C103.305 11.8222 102.814 14.2534 102.814 17.9406V35.85C102.814 39.2941 106.024 37.8759 106.648 38.2406ZM98.0446 35.8905V26.1254C97.1085 24.6262 95.3701 23.127 92.5173 23.127C88.7284 23.127 86.9454 25.5176 86.9454 29.6101C86.9454 34.918 90.1102 38.3622 93.498 38.3622C94.9689 38.3622 98.0446 36.863 98.0446 35.8905ZM115.396 40.9148C111.205 40.9148 110.002 37.9975 110.002 35.4448V26.4901C110.002 24.4642 108.264 23.8969 106.971 23.7348C106.659 23.6943 106.793 22.6813 107.149 22.6003L114.237 20.6959C114.772 20.5338 115.173 20.939 115.039 21.4252C114.593 23.046 114.772 24.7478 114.772 25.9634V34.1077C114.772 36.6198 115.663 37.7949 118.026 37.7949C120.254 37.7949 124.177 37.2681 124.177 34.8775V26.4901C124.177 24.4642 122.438 23.8969 121.146 23.7348C120.834 23.6943 120.967 22.6813 121.324 22.6003L128.412 20.6959C128.946 20.5338 129.348 20.939 129.214 21.4252C128.768 23.046 128.946 24.8288 128.946 26.0444V35.85C128.946 39.2941 132.156 37.8759 132.78 38.2406C133.003 38.3622 133.092 38.6458 133.092 38.8079C133.092 39.6588 129.214 40.9148 127.342 40.9148C125.915 40.9148 124.89 38.038 123.196 38.8079C121.413 39.6182 118.248 40.9148 115.396 40.9148ZM133.415 40.2665C133.059 40.2665 132.747 39.0915 133.103 39.051C134.44 38.8889 136.134 38.3216 136.134 35.9715V18.1432C136.134 13.6861 135.466 12.8352 132.702 12.5516C132.345 12.5111 132.479 11.4576 132.791 11.417L141.082 9.79629C141.483 9.71525 141.84 9.99888 141.706 10.5256C141.394 11.8222 140.904 14.4155 140.904 19.764V35.9715C140.904 38.3216 142.598 38.8889 143.979 39.051C144.292 39.0915 144.024 40.2665 143.667 40.2665H133.415ZM154.232 40.9554C151.557 40.6312 145.094 33.9861 142.509 30.5825C142.107 30.0558 142.018 29.6506 142.642 29.2049C146.387 26.5306 149.239 24.221 147.233 22.7218C146.52 22.1951 146.743 21.4252 147.501 21.4252H156.951C157.798 21.4252 157.798 22.7624 156.951 22.8839C153.741 23.3296 150.487 24.9909 148.794 26.5306C147.055 28.1109 146.609 28.7997 147.456 29.8127C149.997 32.8921 155.257 38.119 158.244 38.4432C158.6 38.4837 159.001 38.5242 159.001 39.051C159.001 39.4562 158.511 39.5372 157.932 39.7398L154.232 40.9554ZM170.78 40.9148C164.584 40.9148 159.949 36.863 159.949 30.9877C159.949 25.2745 164.406 20.6959 170.959 20.6959C177.155 20.6959 181.791 24.7478 181.791 30.623C181.791 36.3362 177.378 40.9148 170.78 40.9148ZM172.073 38.4837C174.257 38.4837 176.932 37.2681 176.932 32.6085C176.932 27.3005 173.767 23.127 169.621 23.127C167.482 23.127 164.807 24.3426 164.807 28.9618C164.807 34.3103 167.972 38.4837 172.073 38.4837ZM191.564 40.9148C187.374 40.9148 186.17 37.9975 186.17 35.4448V26.4901C186.17 24.4642 184.432 23.8969 183.139 23.7348C182.827 23.6943 182.961 22.6813 183.317 22.6003L190.405 20.6959C190.94 20.5338 191.341 20.939 191.207 21.4252C190.761 23.046 190.94 24.7478 190.94 25.9634V34.1077C190.94 36.6198 191.831 37.7949 194.194 37.7949C196.422 37.7949 200.345 37.2681 200.345 34.8775V26.4901C200.345 24.4642 198.607 23.8969 197.314 23.7348C197.002 23.6943 197.136 22.6813 197.492 22.6003L204.58 20.6959C205.115 20.5338 205.516 20.939 205.382 21.4252C204.936 23.046 205.115 24.8288 205.115 26.0444V35.85C205.115 39.2941 208.324 37.8759 208.948 38.2406C209.171 38.3622 209.26 38.6458 209.26 38.8079C209.26 39.6588 205.382 40.9148 203.51 40.9148C202.083 40.9148 201.058 38.038 199.364 38.8079C197.581 39.6182 194.416 40.9148 191.564 40.9148Z" fill="black"/>
</g>
<defs>
<clipPath id="clip0_436_2">
<rect width="209.26" height="50" fill="white"/>
</clipPath>
</defs>
</svg>
