<svg width="321" height="45" viewBox="0 0 321 45" fill="none" xmlns="http://www.w3.org/2000/svg">
<path fill-rule="evenodd" clip-rule="evenodd" d="M77.3246 44.9065L77.3247 31.4762C77.3247 20.1169 69.0434 17.8817 61.495 17.8817C51.4914 17.8817 45.7752 21.436 44.1996 29.241L53.5435 30.9266C54.2032 26.676 57.0978 25.1737 60.9088 25.1737C63.8768 25.1737 67.248 26.1995 67.248 29.9005C67.248 31.4395 66.2953 32.3555 63.6203 32.9785L57.4276 34.3709C50.1251 35.9673 44.5856 38.3507 43.8151 44.9065H53.9102C54.3809 43.0442 56.316 42.1931 58.8567 41.5896L67.7975 39.0612C67.7975 41.4102 67.3995 43.3503 66.6979 44.9065H77.3246ZM92.7244 44.9065H82.1713V18.614H92.7244V22.7914C95.3628 19.6767 99.43 17.8812 104.414 17.8812C113.464 17.8812 118.448 22.5715 118.448 30.926V44.9065H107.858V33.198C107.858 28.1779 104.743 26.3459 101.116 26.3459C96.7552 26.3459 92.7978 28.5445 92.7244 35.5065V44.9065ZM160.521 44.9065V0H149.968L149.968 23.1572C147.733 19.7494 143.372 17.8807 138.426 17.8807C128.532 17.8807 120.287 25.2093 120.287 37.5217C120.287 40.2334 120.686 42.7034 121.413 44.9065H133.224C131.733 43.0661 130.841 40.5579 130.841 37.5222C130.841 30.7433 135.238 26.6027 140.845 26.6027C146.414 26.6027 150.811 30.9266 150.811 37.5222C150.811 40.524 149.908 43.0476 148.396 44.9065H160.521ZM217.702 44.9065H207.039V0H217.702V33.1246H219.681L231.517 18.614H243.462L228.622 36.0926L235.708 44.9065H223.313L219.901 40.4537H217.702V44.9065ZM281.814 44.9065C282.617 42.6776 283.048 40.1712 283.048 37.4127C283.048 25.1743 274.509 17.8824 262.381 17.8824C250.325 17.8824 241.751 25.1741 241.751 37.4127C241.751 40.1712 242.185 42.6776 242.993 44.9065H254.507C253.06 42.9958 252.23 40.4319 252.23 37.4123C252.23 30.6699 256.371 26.1995 262.27 26.1995C268.389 26.1995 272.567 30.6699 272.567 37.4123C272.567 40.4319 271.729 42.9958 270.254 44.9065H281.814ZM0 44.9065V3.33385H10.9929V24.1474H14.7305L31.3298 3.33385H44.741L24.22 28.6539L36.6576 44.9065H23.0099L14.877 33.785H10.9929V44.9065H0ZM320.981 44.9065V18.6148H310.428L310.428 39.3908C310.416 41.7407 309.952 43.5463 309.174 44.9065H320.981ZM295.854 44.9065H284.726C284.712 44.6001 284.705 44.2883 284.705 43.9714V18.6138H295.294V41.6994C295.294 42.9643 295.495 44.0261 295.854 44.9065ZM201.535 44.9065H189.728C190.505 43.5463 190.969 41.7407 190.982 39.3908L190.982 18.6148H201.535V44.9065ZM176.408 44.9065H165.28C165.266 44.6001 165.258 44.2883 165.258 43.9714V18.6138H175.848V41.6994C175.848 42.9643 176.049 44.0261 176.408 44.9065Z" fill="#303030"/>
</svg>
